<?xml version="1.0" encoding="utf-8"?>
<!-- Generator: Adobe Illustrator 26.0.2, SVG Export Plug-In . SVG Version: 6.00 Build 0)  -->
<svg version="1.1" id="Layer_1" xmlns="http://www.w3.org/2000/svg" xmlns:xlink="http://www.w3.org/1999/xlink" x="0px" y="0px"
	 viewBox="0 0 90 90" style="enable-background:new 0 0 90 90;" xml:space="preserve">
<style type="text/css">
	.st0{fill:#A3B18A;}
</style>
<path class="st0" d="M85,68.2l-1.4-50.1l0-0.8l-0.8,0.1l-4.4,0.4l0-0.6l0-0.8l-0.8,0.1l-5.4,0.2l0,1.5L77,18
	c0.7,27.3,1.1,43.4,1.2,46.9c-5.4,0.5-11,1.5-16.5,2.8c-4.3,1-8.7,2.2-12.8,3.5c-0.8,0.2-1.6,0.5-2.4,0.8l-0.3,0.1
	c0.4-0.6,3.6-3.3,4.9-4.2c2.1-1.4,4.3-2.6,6.6-3.6c0.1-0.1,0.2-0.1,0.3-0.1c4.6-2,9.5-3.1,14.5-3.4l0.7,0l0-0.7l-1-42.9l0-1.5
	l-0.1-2.9l0-0.7l-0.7,0c-5.6-0.2-10.9,1.1-15.6,3.7c-4.3,2.4-8.1,5.8-10.8,10.1c-2.7-4.3-6.5-7.7-10.8-10.1
	c-4.7-2.6-10.1-3.9-15.6-3.7l-0.7,0l0,0.7l-0.1,2.9l0,1l-5.4-0.2l-0.8-0.1l0,0.8l0,0.6l-4.4-0.4l-0.8-0.1l0,0.8L5,68.2l0,0.6
	l0.6,0.1l38.7,8.2l0.6,0.1v0l0,0l0,0v0l0.6-0.1l38.7-8.2l0.6-0.1L85,68.2z M45.7,45.5V27.6c2.6-4.5,6.4-8.1,10.8-10.5
	c4.3-2.4,9.1-3.6,14.2-3.6l1,45.9c-5,0.3-9.8,1.5-14.3,3.5c-4.2,1.8-8.2,4.3-11.7,7.3V45.5z M19.3,13.5c5.1-0.1,9.9,1.2,14.2,3.6
	c4.4,2.4,8.2,6,10.8,10.5v17.9v24.7c-3.5-3.1-7.4-5.5-11.7-7.3c-4.5-1.9-9.4-3.1-14.3-3.5L19.3,13.5z M13,18l4.7,0.1L16.8,60l0,0.7
	l0.7,0c5,0.3,10,1.4,14.5,3.4c0.1,0,0.2,0.1,0.3,0.1c2.3,1,4.5,2.2,6.6,3.6c1.3,0.9,4.5,3.6,4.9,4.2L43.6,72
	c-0.8-0.3-1.6-0.5-2.4-0.8c-4.2-1.3-8.5-2.5-12.8-3.5c-5.5-1.3-11.1-2.2-16.5-2.8C11.9,61.5,12.3,45.4,13,18z M45,75.8L6.5,67.6
	l1.4-48.7l3.7,0.3c-0.8,30.1-1.2,46.2-1.2,46.2l0,0.7l0.7,0.1c5.5,0.5,11.3,1.5,17,2.8c5.4,1.2,10.8,2.8,15.9,4.5
	c0.1,0,0.1,0,0.2,0.1L45,74v0l0,0l0,0v0l0.8-0.3c0.1,0,0.1,0,0.2-0.1c5.1-1.7,10.5-3.3,15.9-4.5c5.7-1.3,11.5-2.3,17-2.8l0.7-0.1
	l0-0.7c0,0-0.4-16.2-1.2-46.2l3.7-0.3l1.4,48.7L45,75.8z"/>
</svg>
