<?xml version="1.0" encoding="utf-8"?>
<!-- Generator: Adobe Illustrator 26.0.2, SVG Export Plug-In . SVG Version: 6.00 Build 0)  -->
<svg version="1.1" id="Layer_1" xmlns="http://www.w3.org/2000/svg" xmlns:xlink="http://www.w3.org/1999/xlink" x="0px" y="0px"
	 viewBox="0 0 100 100" style="enable-background:new 0 0 100 100;" xml:space="preserve">
<style type="text/css">
	.st0{fill:#A3B18A;}
</style>
<g>
	<path class="st0" d="M50,25.2c5.2,0,9.4-4.2,9.4-9.4c0-5.2-4.2-9.4-9.4-9.4c-5.2,0-9.4,4.2-9.4,9.4C40.6,21,44.8,25.2,50,25.2z
		 M50,8.5c4,0,7.3,3.3,7.3,7.3c0,4-3.3,7.3-7.3,7.3c-4,0-7.3-3.3-7.3-7.3C42.7,11.8,46,8.5,50,8.5z"/>
	<path class="st0" d="M76.3,7.1c0.6-2.4-1-4.9-3.4-5.5C70.5,1,68,2.6,67.5,5c-2,8.6-6.4,16.4-12.8,22.6h-9.3
		C39,21.4,34.6,13.6,32.6,5c-0.3-1.2-1-2.2-2-2.8c-1-0.6-2.3-0.8-3.4-0.6c-2.4,0.6-4,3-3.4,5.5c2.4,10.2,7.5,19.4,15,26.7V63
		l-2.1,10.7L25.1,86.3c-1.9,2.1-1.8,5.4,0.3,7.3c1,0.9,2.2,1.3,3.5,1.3c1.4,0,2.8-0.6,3.8-1.7l12.4-13.6c0,0,0,0,0,0
		c0.6-0.7,1.1-1.6,1.3-2.5v0l0,0l2.5-12.6l0,0c0.1-0.3,0.1-0.7,0.1-1c0-0.5,0.4-0.9,0.9-0.9s0.9,0.4,0.9,0.9c0,0.3,0,0.7,0.1,1l0,0
		L53,75.7l-5.8,16c-1,2.7,0.4,5.6,3.1,6.6c0.6,0.2,1.2,0.3,1.8,0.3c2.1,0,4.1-1.3,4.9-3.4l6.3-17.3c0.3-0.9,0.4-1.8,0.2-2.8v0L61,63
		V34.1C68.6,26.7,73.9,17.4,76.3,7.1z M61.4,75.5L61.4,75.5c0.1,0.6,0.1,1.1-0.1,1.7L55,94.5c-0.6,1.6-2.4,2.4-4,1.9
		c-1.6-0.6-2.4-2.4-1.9-4L55,76.2c0,0,0,0,0-0.1c0-0.1,0-0.1,0-0.2c0-0.1,0-0.1,0-0.2c0,0,0,0,0-0.1l-2.3-11.5l0,0v0
		c0-0.2-0.1-0.4-0.1-0.6c0-1.6-1.3-2.9-2.9-2.9c-1.6,0-2.9,1.3-2.9,2.9c0,0.2,0,0.4-0.1,0.6c0,0,0,0,0,0l-2.5,12.6v0
		c-0.1,0.6-0.4,1.1-0.8,1.5c0,0,0,0,0,0L31.2,91.8C30,93.1,28,93.2,26.8,92c-1.3-1.2-1.4-3.1-0.2-4.4l11.7-12.8c0,0,0-0.1,0-0.1
		c0-0.1,0.1-0.1,0.1-0.2c0-0.1,0-0.1,0.1-0.2c0,0,0,0,0-0.1l2.2-11.1c0,0,0-0.1,0-0.1c0,0,0-0.1,0-0.1V33.3c0,0,0,0,0,0
		c0-0.1,0-0.3-0.1-0.4c0,0,0,0,0,0c0,0,0,0,0,0c-0.1-0.1-0.1-0.2-0.2-0.3c0,0,0,0,0,0c-7.3-7.1-12.4-16.1-14.7-26
		c-0.3-1.3,0.5-2.7,1.9-3c0.6-0.2,1.3,0,1.9,0.3c0.6,0.4,1,0.9,1.1,1.6c2.1,9.2,6.9,17.4,13.7,23.9c0,0,0,0,0,0c0,0,0,0,0,0
		c0,0,0.1,0,0.1,0.1c0.1,0,0.1,0.1,0.2,0.1c0.1,0,0.2,0,0.2,0c0,0,0.1,0,0.1,0H55c0,0,0,0,0,0h0c0,0,0.1,0,0.1,0
		c0.1,0,0.2,0,0.3-0.1c0.1,0,0.1-0.1,0.2-0.1c0,0,0.1,0,0.1-0.1c0,0,0,0,0,0c0,0,0,0,0,0c6.8-6.5,11.5-14.7,13.7-23.9
		c0.3-1.3,1.7-2.2,3-1.9c1.3,0.3,2.2,1.7,1.9,3C72,16.7,66.8,25.8,59.3,32.9c0,0,0,0,0,0c-0.1,0.1-0.1,0.2-0.2,0.3c0,0,0,0-0.1,0.1
		c0,0,0,0.1,0,0.1c0,0.1-0.1,0.2-0.1,0.3l0,0v29.4c0,0,0,0.1,0,0.1s0,0.1,0,0.1L61.4,75.5L61.4,75.5z"/>
</g>
</svg>
