<?xml version="1.0" encoding="utf-8"?>
<!-- Generator: Adobe Illustrator 26.0.2, SVG Export Plug-In . SVG Version: 6.00 Build 0)  -->
<svg version="1.1" id="Layer_1" xmlns="http://www.w3.org/2000/svg" xmlns:xlink="http://www.w3.org/1999/xlink" x="0px" y="0px"
	 viewBox="0 0 100 100" style="enable-background:new 0 0 100 100;" xml:space="preserve">
<style type="text/css">
	.st0{fill:#A3B18A;}
</style>
<g>
	<g>
		<path class="st0" d="M25.8,54.9c-0.6,0-1,0.4-1,1v10.3c0,0.6,0.4,1,1,1H29l5.7,25.2c0.1,0.5,0.5,0.8,1,0.8h28.7
			c0.5,0,0.9-0.3,1-0.8L71,67.2h3.2c0.6,0,1-0.4,1-1V55.9c0-0.6-0.4-1-1-1H51v-26l2.5-0.1c9.5-0.3,17.2-8,17.4-17.4L71,7.9
			c0-0.3-0.1-0.5-0.3-0.7C70.5,7,70.2,6.9,70,6.9L66.5,7C57,7.3,49.3,15,49.1,24.4L49,27.9l0,0l0,0v4.5c-2.9-5.8-8.7-9.8-15.6-10
			l-3.5-0.1c-0.3,0-0.5,0.1-0.7,0.3c-0.2,0.2-0.3,0.5-0.3,0.7l0.1,3.5c0.3,9.5,8,17.2,17.4,17.4l2.5,0.1v10.5H25.8V54.9z M46.5,42.3
			C38.1,42,31.3,35.2,31,26.8l-0.1-2.5l2.5,0.1c8.4,0.3,15.2,7.1,15.5,15.5l0.1,2.5L46.5,42.3z M51.1,24.4
			C51.4,16,58.2,9.2,66.6,8.9l2.5-0.1L69,11.3c-0.3,8.4-7.1,15.2-15.5,15.5L51,26.9L51.1,24.4z M63.5,91.2h-27l-5.4-24H69L63.5,91.2
			z M73.2,65.2H26.8v-8.3h46.3L73.2,65.2L73.2,65.2z"/>
	</g>
</g>
</svg>
