<?xml version="1.0" encoding="utf-8"?>
<!-- Generator: Adobe Illustrator 26.0.2, SVG Export Plug-In . SVG Version: 6.00 Build 0)  -->
<svg version="1.1" id="Layer_1" xmlns="http://www.w3.org/2000/svg" xmlns:xlink="http://www.w3.org/1999/xlink" x="0px" y="0px"
	 viewBox="0 0 2500 662" style="enable-background:new 0 0 2500 662;" xml:space="preserve">
<style type="text/css">
	.st0{fill:#FFFFFF;}
</style>
<path class="st0" d="M2041.2,554.2V255.2h-99.4v298.9H2041.2L2041.2,554.2z M1991.6,214.4c34.6,0,56.2-23,56.2-51.6
	c-0.7-29.3-21.6-51.7-55.5-51.7c-34,0-56.2,22.3-56.2,51.7c0,28.7,21.6,51.6,54.9,51.6H1991.6L1991.6,214.4z M2096.2,554.2h99.4
	V387.2c0-8.9,0.7-17.9,3.3-24.2c7.2-17.9,23.5-36.3,51-36.3c35.9,0,50.3,27.4,50.3,67.6v159.9h99.4V382.8
	c0-91.8-49-134.5-114.4-134.5c-53.6,0-77.1,30-90.2,50.4h0.7v-43.3h-99.4C2097.5,283.3,2096.2,554.2,2096.2,554.2L2096.2,554.2z"/>
</svg>
