<?xml version="1.0" encoding="utf-8"?>
<!-- Generator: Adobe Illustrator 26.0.2, SVG Export Plug-In . SVG Version: 6.00 Build 0)  -->
<svg version="1.1" id="Livello_1" xmlns="http://www.w3.org/2000/svg" xmlns:xlink="http://www.w3.org/1999/xlink" x="0px" y="0px"
	 viewBox="0 0 728.5 1031.8" style="enable-background:new 0 0 728.5 1031.8;" xml:space="preserve">
<style type="text/css">
	.st0{fill:#FFFFFF;}
</style>
<g>
	<g>
		<path class="st0" d="M159.2,604h-29.6l0,8.5h20c-2.4,10.3-9.6,16.7-19.4,16.7c-12.8,0-23.2-10.4-23.2-23.2s10.4-23.2,23.2-23.2
			c6.1,0,11.6,2.4,15.8,6.2l6.6-5.6c-5.7-5.7-13.6-9.2-22.3-9.2c-17.6,0-31.8,14.3-31.8,31.8c0,17.6,14.3,31.8,31.8,31.8
			c16.9,0,29.1-12.9,29.1-30.5L159.2,604z"/>
		<g>
			<rect x="169.6" y="604.3" class="st0" width="32.2" height="7.8"/>
			
				<rect x="169.6" y="604.3" transform="matrix(4.490789e-11 1 -1 4.490789e-11 793.9246 422.5645)" class="st0" width="32.2" height="7.8"/>
		</g>
	</g>
</g>
</svg>
